<svg xmlns="http://www.w3.org/2000/svg" id="canvas" viewBox="135.648 304.617 84.942 40.843"><path d="M 149.03,309.01 C 148.86 309.42, 148.82 309.99, 148.76 311.02 C 148.70 312.06, 148.70 312.76, 148.73 314.20 C 148.76 315.64, 148.84 316.62, 148.90 318.22 C 148.97 319.83, 149.01 320.66, 149.05 322.22 C 149.09 323.78, 149.11 324.58, 149.10 326.04 C 149.10 327.50, 149.06 328.23, 149.02 329.53 C 148.98 330.84, 148.89 331.48, 148.89 332.58 C 148.88 333.68, 148.87 334.25, 148.99 335.05 C 149.11 335.84, 149.28 336.27, 149.47 336.56 C 149.65 336.85, 149.80 336.81, 149.91 336.50 C 150.03 336.19, 149.97 335.79, 150.03 335.01 C 150.09 334.23, 150.14 333.71, 150.21 332.62 C 150.28 331.54, 150.32 330.90, 150.37 329.58 C 150.43 328.27, 150.45 327.53, 150.48 326.06 C 150.51 324.58, 150.50 323.78, 150.52 322.21 C 150.53 320.63, 150.57 319.79, 150.54 318.17 C 150.51 316.56, 150.47 315.57, 150.37 314.13 C 150.27 312.68, 150.19 311.99, 150.04 310.97 C 149.88 309.94, 149.81 309.38, 149.61 308.99 C 149.41 308.60, 149.20 308.60, 149.03 309.01" style="stroke: #3288fe; fill: #3288fe;"/><path d="M 139.00,311.68 C 139.21 311.70, 139.23 311.56, 139.69 311.42 C 140.15 311.28, 140.46 311.18, 141.29 310.97 C 142.13 310.75, 142.66 310.54, 143.87 310.34 C 145.07 310.14, 145.80 310.11, 147.33 309.98 C 148.86 309.85, 149.80 309.83, 151.53 309.71 C 153.26 309.58, 154.21 309.49, 155.99 309.36 C 157.77 309.24, 158.73 309.16, 160.41 309.08 C 162.10 309.01, 162.97 309.01, 164.42 308.99 C 165.87 308.98, 166.51 309.01, 167.65 309.00 C 168.78 308.99, 169.29 308.96, 170.10 308.92 C 170.90 308.88, 171.20 308.86, 171.68 308.80 C 172.15 308.74, 172.31 308.71, 172.47 308.60 C 172.64 308.49, 172.64 308.38, 172.49 308.26 C 172.34 308.14, 172.19 308.08, 171.71 307.98 C 171.23 307.88, 170.91 307.81, 170.10 307.76 C 169.29 307.72, 168.79 307.77, 167.65 307.75 C 166.52 307.73, 165.88 307.66, 164.42 307.64 C 162.96 307.62, 162.07 307.60, 160.36 307.64 C 158.65 307.69, 157.68 307.77, 155.89 307.87 C 154.11 307.98, 153.16 308.06, 151.43 308.16 C 149.69 308.27, 148.78 308.27, 147.21 308.38 C 145.64 308.49, 144.88 308.49, 143.60 308.70 C 142.31 308.91, 141.69 309.08, 140.79 309.43 C 139.89 309.78, 139.54 310.05, 139.11 310.43 C 138.68 310.81, 138.67 311.08, 138.65 311.33 C 138.63 311.58, 138.79 311.66, 139.00 311.68" style="stroke: #3288fe; fill: #3288fe;"/><path d="M 146.17,325.04 C 146.39 325.23, 146.60 325.33, 147.28 325.47 C 147.97 325.62, 148.47 325.72, 149.57 325.77 C 150.67 325.82, 151.44 325.81, 152.77 325.74 C 154.09 325.67, 154.83 325.52, 156.20 325.42 C 157.57 325.31, 158.41 325.27, 159.62 325.21 C 160.84 325.16, 161.33 325.15, 162.26 325.13 C 163.20 325.12, 163.62 325.13, 164.31 325.15 C 164.99 325.16, 165.26 325.22, 165.68 325.21 C 166.10 325.20, 166.25 325.19, 166.41 325.10 C 166.57 325.01, 166.59 324.90, 166.48 324.76 C 166.36 324.61, 166.24 324.52, 165.83 324.37 C 165.41 324.21, 165.11 324.08, 164.40 323.98 C 163.69 323.88, 163.24 323.91, 162.28 323.87 C 161.32 323.83, 160.83 323.79, 159.60 323.78 C 158.36 323.77, 157.49 323.77, 156.11 323.82 C 154.73 323.87, 153.99 323.99, 152.69 324.04 C 151.38 324.09, 150.65 324.04, 149.58 324.08 C 148.51 324.12, 148.01 324.16, 147.34 324.25 C 146.66 324.33, 146.44 324.37, 146.20 324.53 C 145.97 324.69, 145.95 324.85, 146.17 325.04" style="stroke: #3288fe; fill: #3288fe;"/><path d="M 176.89,309.15 C 176.74 309.41, 176.74 309.71, 176.72 310.41 C 176.70 311.10, 176.70 311.54, 176.77 312.62 C 176.83 313.70, 176.91 314.46, 177.05 315.81 C 177.18 317.17, 177.28 317.96, 177.45 319.38 C 177.61 320.81, 177.68 321.56, 177.87 322.94 C 178.07 324.33, 178.16 325.06, 178.42 326.31 C 178.69 327.57, 178.81 328.13, 179.21 329.21 C 179.60 330.30, 179.84 330.85, 180.42 331.72 C 181.00 332.58, 181.39 332.94, 182.11 333.54 C 182.83 334.15, 183.21 334.37, 184.03 334.73 C 184.86 335.10, 185.32 335.22, 186.24 335.38 C 187.17 335.54, 187.69 335.58, 188.67 335.54 C 189.64 335.50, 190.18 335.39, 191.14 335.18 C 192.09 334.97, 192.62 334.82, 193.44 334.48 C 194.25 334.14, 194.68 333.88, 195.22 333.49 C 195.76 333.11, 195.99 332.82, 196.12 332.55 C 196.25 332.29, 196.16 332.17, 195.88 332.16 C 195.59 332.15, 195.30 332.31, 194.71 332.50 C 194.12 332.69, 193.71 332.87, 192.93 333.12 C 192.16 333.37, 191.68 333.55, 190.81 333.75 C 189.95 333.95, 189.46 334.05, 188.59 334.11 C 187.72 334.16, 187.26 334.14, 186.45 334.03 C 185.64 333.93, 185.24 333.86, 184.53 333.57 C 183.82 333.28, 183.52 333.10, 182.91 332.59 C 182.30 332.07, 181.98 331.77, 181.48 331.01 C 180.98 330.25, 180.77 329.77, 180.42 328.78 C 180.08 327.78, 179.98 327.25, 179.75 326.05 C 179.53 324.85, 179.46 324.13, 179.30 322.76 C 179.15 321.40, 179.10 320.66, 178.99 319.23 C 178.88 317.81, 178.87 317.01, 178.75 315.65 C 178.63 314.29, 178.56 313.52, 178.40 312.44 C 178.23 311.36, 178.11 310.93, 177.92 310.26 C 177.73 309.59, 177.64 309.30, 177.43 309.08 C 177.22 308.85, 177.03 308.88, 176.89 309.15" style="stroke: #3288fe; fill: #3288fe;"/><path d="M 198.58,312.43 C 198.48 312.68, 198.49 312.94, 198.59 313.51 C 198.68 314.09, 198.75 314.52, 199.06 315.29 C 199.37 316.07, 199.61 316.60, 200.14 317.39 C 200.67 318.19, 201.01 318.59, 201.72 319.26 C 202.42 319.93, 202.81 320.24, 203.65 320.73 C 204.49 321.22, 205.00 321.47, 205.92 321.70 C 206.84 321.93, 207.34 321.94, 208.25 321.90 C 209.16 321.85, 209.60 321.75, 210.45 321.47 C 211.30 321.18, 211.73 321.00, 212.49 320.48 C 213.24 319.95, 213.62 319.58, 214.22 318.84 C 214.82 318.11, 215.06 317.65, 215.47 316.80 C 215.88 315.94, 216.04 315.41, 216.27 314.56 C 216.50 313.71, 216.51 313.26, 216.61 312.54 C 216.72 311.82, 216.78 311.48, 216.79 310.97 C 216.79 310.45, 216.75 310.16, 216.63 309.97 C 216.52 309.78, 216.36 309.76, 216.21 310.00 C 216.07 310.24, 215.99 310.46, 215.91 311.16 C 215.82 311.86, 215.79 312.38, 215.79 313.51 C 215.78 314.64, 215.90 315.37, 215.88 316.82 C 215.87 318.26, 215.81 319.11, 215.72 320.75 C 215.63 322.39, 215.56 323.28, 215.42 325.01 C 215.29 326.74, 215.22 327.69, 215.05 329.42 C 214.87 331.14, 214.70 332.07, 214.55 333.63 C 214.39 335.19, 214.41 335.98, 214.26 337.20 C 214.12 338.42, 214.01 338.94, 213.82 339.72 C 213.64 340.50, 213.56 340.74, 213.34 341.11 C 213.12 341.48, 212.93 341.44, 212.72 341.56 C 212.51 341.68, 212.43 341.64, 212.28 341.70 C 212.14 341.76, 212.05 341.75, 211.98 341.85 C 211.91 341.96, 211.87 342.11, 211.95 342.23 C 212.02 342.35, 212.12 342.42, 212.35 342.44 C 212.59 342.46, 212.76 342.50, 213.11 342.34 C 213.46 342.18, 213.74 342.10, 214.10 341.64 C 214.46 341.18, 214.61 340.89, 214.90 340.04 C 215.19 339.18, 215.34 338.63, 215.55 337.39 C 215.76 336.14, 215.76 335.35, 215.95 333.79 C 216.14 332.22, 216.32 331.30, 216.51 329.57 C 216.70 327.84, 216.75 326.88, 216.91 325.13 C 217.06 323.39, 217.14 322.51, 217.27 320.86 C 217.40 319.20, 217.49 318.33, 217.55 316.86 C 217.61 315.39, 217.59 314.65, 217.57 313.50 C 217.55 312.35, 217.57 311.84, 217.43 311.11 C 217.30 310.38, 217.17 310.11, 216.90 309.84 C 216.63 309.56, 216.37 309.55, 216.09 309.74 C 215.81 309.92, 215.68 310.24, 215.52 310.76 C 215.35 311.27, 215.39 311.64, 215.27 312.32 C 215.14 313.01, 215.11 313.41, 214.89 314.18 C 214.67 314.95, 214.52 315.42, 214.17 316.18 C 213.81 316.93, 213.61 317.33, 213.12 317.97 C 212.62 318.60, 212.31 318.91, 211.69 319.36 C 211.08 319.82, 210.73 319.98, 210.03 320.22 C 209.33 320.46, 208.94 320.53, 208.19 320.56 C 207.44 320.60, 207.03 320.58, 206.27 320.37 C 205.50 320.16, 205.06 319.96, 204.35 319.53 C 203.65 319.11, 203.30 318.84, 202.73 318.24 C 202.17 317.64, 201.95 317.25, 201.52 316.52 C 201.09 315.80, 200.94 315.30, 200.59 314.61 C 200.24 313.91, 200.08 313.54, 199.78 313.06 C 199.48 312.59, 199.34 312.37, 199.10 312.24 C 198.86 312.11, 198.68 312.17, 198.58 312.43" style="stroke: #3288fe; fill: #3288fe;"/></svg>